<?xml version="1.0" encoding="UTF-8" standalone="no"?>
<!-- Created with Inkscape (http://www.inkscape.org/) -->

<svg
   xmlns:dc="http://purl.org/dc/elements/1.1/"
   xmlns:cc="http://creativecommons.org/ns#"
   xmlns:rdf="http://www.w3.org/1999/02/22-rdf-syntax-ns#"
   xmlns:svg="http://www.w3.org/2000/svg"
   xmlns="http://www.w3.org/2000/svg"
   xmlns:xlink="http://www.w3.org/1999/xlink"
   xmlns:sodipodi="http://sodipodi.sourceforge.net/DTD/sodipodi-0.dtd"
   xmlns:inkscape="http://www.inkscape.org/namespaces/inkscape"
   id="svg3338"
   version="1.1"
   inkscape:version="0.91 r13725"
   width="282.5"
   height="250"
   viewBox="0 0 282.5 250"
   sodipodi:docname="logovector2.svg">
  <metadata
     id="metadata3344">
    <rdf:RDF>
      <cc:Work
         rdf:about="">
        <dc:format>image/svg+xml</dc:format>
        <dc:type
           rdf:resource="http://purl.org/dc/dcmitype/StillImage" />
        <dc:title />
      </cc:Work>
    </rdf:RDF>
  </metadata>
  <defs
     id="defs3342">
    <linearGradient
       id="linearGradient4450"
       inkscape:collect="always">
      <stop
         id="stop4452"
         offset="0"
         style="stop-color:#6847d2;stop-opacity:1" />
      <stop
         id="stop4454"
         offset="1"
         style="stop-color:#b18def;stop-opacity:1" />
    </linearGradient>
    <linearGradient
       inkscape:collect="always"
       id="linearGradient4442">
      <stop
         style="stop-color:#6847d2;stop-opacity:1"
         offset="0"
         id="stop4444" />
      <stop
         style="stop-color:#b18def;stop-opacity:1"
         offset="1"
         id="stop4446" />
    </linearGradient>
    <linearGradient
       id="linearGradient4418"
       inkscape:collect="always">
      <stop
         id="stop4420"
         offset="0"
         style="stop-color:#75fcf9;stop-opacity:1" />
      <stop
         id="stop4422"
         offset="1"
         style="stop-color:#0d94fd;stop-opacity:1" />
    </linearGradient>
    <linearGradient
       inkscape:collect="always"
       id="linearGradient4400">
      <stop
         style="stop-color:#75fcf9;stop-opacity:1"
         offset="0"
         id="stop4402" />
      <stop
         style="stop-color:#0d94fd;stop-opacity:1"
         offset="1"
         id="stop4404" />
    </linearGradient>
    <linearGradient
       inkscape:collect="always"
       xlink:href="#linearGradient4418"
       id="linearGradient4388"
       x1="142.62874"
       y1="191.64343"
       x2="142.5062"
       y2="24.76745"
       gradientUnits="userSpaceOnUse" />
    <linearGradient
       inkscape:collect="always"
       xlink:href="#linearGradient4400"
       id="linearGradient4410"
       x1="142.62874"
       y1="191.64343"
       x2="142.5062"
       y2="24.76745"
       gradientUnits="userSpaceOnUse" />
    <linearGradient
       inkscape:collect="always"
       xlink:href="#linearGradient4450"
       id="linearGradient4440"
       x1="142.1953"
       y1="229.75099"
       x2="142.5148"
       y2="24.872978"
       gradientUnits="userSpaceOnUse" />
    <linearGradient
       inkscape:collect="always"
       xlink:href="#linearGradient4442"
       id="linearGradient4448"
       x1="142.1953"
       y1="229.75099"
       x2="142.5148"
       y2="24.872978"
       gradientUnits="userSpaceOnUse" />
  </defs>
  <sodipodi:namedview
     pagecolor="#ffffff"
     bordercolor="#666666"
     borderopacity="1"
     objecttolerance="10"
     gridtolerance="10"
     guidetolerance="10"
     inkscape:pageopacity="0"
     inkscape:pageshadow="2"
     inkscape:window-width="1536"
     inkscape:window-height="801"
     id="namedview3340"
     showgrid="false"
     inkscape:snap-bbox="true"
     inkscape:bbox-paths="true"
     inkscape:snap-intersection-paths="false"
     inkscape:object-paths="false"
     inkscape:snap-nodes="true"
     inkscape:bbox-nodes="true"
     inkscape:snap-bbox-midpoints="true"
     inkscape:snap-bbox-edge-midpoints="true"
     inkscape:snap-others="false"
     inkscape:snap-grids="true"
     inkscape:snap-page="true"
     showguides="false"
     inkscape:zoom="2"
     inkscape:cx="151.1926"
     inkscape:cy="101.68901"
     inkscape:window-x="-8"
     inkscape:window-y="-8"
     inkscape:window-maximized="1"
     inkscape:current-layer="layer1">
    <inkscape:grid
       type="xygrid"
       id="grid4228" />
  </sodipodi:namedview>
  <g
     inkscape:groupmode="layer"
     id="layer1"
     inkscape:label="Layer 1">
    <path
       style="fill:none;fill-rule:evenodd;stroke:#000000;stroke-width:0;stroke-linecap:butt;stroke-linejoin:miter;stroke-miterlimit:4;stroke-dasharray:none;stroke-opacity:1"
       d="M 10.007487,25.000555 110.14176,229.87289 175.15764,230.13772 275.00518,24.991656 142.52864,24.867451 Z"
       id="path4181"
       inkscape:connector-curvature="0"
       sodipodi:nodetypes="cccccc" />
    <path
       style="fill:none;fill-rule:evenodd;stroke:#000000;stroke-width:0;stroke-linecap:butt;stroke-linejoin:miter;stroke-miterlimit:4;stroke-dasharray:none;stroke-opacity:1"
       d="M 225.02254,24.945931 142.59161,192.57798 60.007019,24.917165"
       id="path4187"
       inkscape:connector-curvature="0"
       sodipodi:nodetypes="ccc" />
    <path
       style="fill:none;fill-rule:evenodd;stroke:#000000;stroke-width:0;stroke-linecap:butt;stroke-linejoin:miter;stroke-miterlimit:4;stroke-dasharray:none;stroke-opacity:1"
       d="m 79.757665,64.993853 42.825105,-0.06518 -4.17704,78.512035"
       id="path4189"
       inkscape:connector-curvature="0"
       sodipodi:nodetypes="ccc" />
    <path
       style="fill:none;fill-rule:evenodd;stroke:#000000;stroke-width:0;stroke-linecap:butt;stroke-linejoin:miter;stroke-miterlimit:4;stroke-dasharray:none;stroke-opacity:1"
       d="M 166.76516,143.47419 162.58332,65.04808 205.3851,65.02576"
       id="path4191"
       inkscape:connector-curvature="0"
       sodipodi:nodetypes="ccc" />
    <path
       style="opacity:1;fill:none;fill-opacity:0;stroke:#0dff00;stroke-width:0;stroke-miterlimit:4;stroke-dasharray:none;stroke-opacity:0"
       d="m 130.49249,167.04197 -11.73296,-23.82713 2.0196,-37.65999 c 1.11079,-20.71298 2.01961,-38.460764 2.01961,-39.439508 l 0,-1.779534 -21.375,0.307987 -21.375002,0.307987 -9.634891,-19.666338 -9.634891,-19.666339 41.049334,-0.127914 c 22.57714,-0.07035 59.35329,-0.07035 81.72479,0 l 40.67545,0.127914 -9.58989,19.603357 -9.5899,19.603356 -21.375,0.02165 c -16.75273,0.01696 -21.37594,0.156798 -21.37933,0.646644 -0.002,0.34375 0.91944,17.960798 2.04849,39.148988 l 2.05282,38.524 -11.67349,23.84408 c -6.42042,13.11424 -11.85873,23.84719 -12.08514,23.851 -0.2264,0.004 -5.69147,-10.71529 -12.1446,-23.82021 z"
       id="path4360"
       inkscape:connector-curvature="0" />
    <path
       style="opacity:1;fill:#0000ff;fill-opacity:0;stroke:#0dff00;stroke-width:0;stroke-miterlimit:4;stroke-dasharray:none;stroke-opacity:0"
       d="m 130.49249,167.04197 -11.73296,-23.82713 2.0196,-37.65999 c 1.11079,-20.71298 2.01961,-38.460764 2.01961,-39.439508 l 0,-1.779534 -21.375,0.307987 -21.375002,0.307987 -9.634891,-19.666338 -9.634891,-19.666339 41.049334,-0.127914 c 22.57714,-0.07035 59.35329,-0.07035 81.72479,0 l 40.67545,0.127914 -9.58989,19.603357 -9.5899,19.603356 -21.375,0.02165 c -16.75273,0.01696 -21.37594,0.156798 -21.37933,0.646644 -0.002,0.34375 0.91944,17.960798 2.04849,39.148988 l 2.05282,38.524 -11.67349,23.84408 c -6.42042,13.11424 -11.85873,23.84719 -12.08514,23.851 -0.2264,0.004 -5.69147,-10.71529 -12.1446,-23.82021 z"
       id="path4362"
       inkscape:connector-curvature="0" />
    <path
       style="opacity:1;fill:url(#linearGradient4410);fill-opacity:1;fill-rule:nonzero;stroke:url(#linearGradient4388);stroke-width:0;stroke-miterlimit:4;stroke-dasharray:none;stroke-opacity:0"
       d="m 130.49249,167.04197 -12.41797,-23.65035 2.70461,-37.83677 c 1.47894,-20.689953 2.01961,-38.460764 2.01961,-39.439508 l 0.0625,-1.279534 -21.375,0.05799 L 79.032272,65.04017 69.927711,45.859968 60.37016,25.630154 101.82829,25.491191 c 22.76858,-0.07632 59.54095,0.04989 81.72479,0 l 41.38256,-0.09306 -10.047,20.824328 -8.76538,18.673439 -22.44952,-0.04843 c -16.75269,-0.03614 -21.62933,0.209144 -21.62933,0.209144 0,0 1.16944,18.398298 2.29849,39.586488 l 2.47266,38.59029 -12.09333,23.77779 c -6.61938,13.01495 -11.85873,23.84719 -12.08514,23.851 -0.2264,0.004 -5.69147,-10.71529 -12.1446,-23.82021 z"
       id="path4372"
       inkscape:connector-curvature="0"
       sodipodi:nodetypes="scsscccccsscccscscscs" />
    <path
       style="opacity:1;fill:url(#linearGradient4448);fill-opacity:1;fill-rule:nonzero;stroke:url(#linearGradient4440);stroke-width:0;stroke-miterlimit:4;stroke-dasharray:none;stroke-opacity:1;"
       d="m 141.46511,229.37852 c -16.82099,-0.14268 -30.72604,-0.40196 -30.9001,-0.57619 -0.34922,-0.34954 -1.03202,-1.74256 -53.884902,-109.93323 C 36.327308,77.206605 17.93298,39.631605 15.803823,35.369105 c -2.129157,-4.2625 -4.028982,-8.25625 -4.221834,-8.875 l -0.350638,-1.125 24.158693,0.01617 24.932092,0.237141 16.708497,35.387858 c 31.455817,66.622036 65.154617,129.890076 65.608147,129.890076 0.43947,0 27.59558,-52.74188 64.57173,-128.208907 l 17.76371,-37.295079 24.23146,0.118684 c 13.01189,0.06373 23.65574,-0.147676 23.81633,0.01291 0.27542,0.275419 -11.37385,25.198997 -72.76633,151.460972 -24.3654,50.11075 -25.77218,52.86406 -26.95694,52.75941 -0.6875,-0.0607 -15.01263,-0.22714 -31.83363,-0.36982 z"
       id="path4432"
       inkscape:connector-curvature="0"
       sodipodi:nodetypes="scssscccssscssscs" />
  </g>
</svg>
